<?xml version="1.0" encoding="utf-8"?>
<!-- Generator: Adobe Illustrator 26.3.1, SVG Export Plug-In . SVG Version: 6.00 Build 0)  -->
<svg version="1.1" id="visual" xmlns="http://www.w3.org/2000/svg" xmlns:xlink="http://www.w3.org/1999/xlink" x="0px" y="0px"
	 viewBox="0 0 591.9 600" style="enable-background:new 0 0 591.9 600;" xml:space="preserve">
<style type="text/css">
	.st0{fill:#3730BD;}
</style>
<g transform="translate(453.22759503257294 283.5214232112284)">
	<path class="st0" d="M28.9-234.5c53.8,21.6,96.6,75.7,104.2,133.1c7.6,57.5-20,118.4-50.3,168.1c-30.3,49.7-63.4,88.2-103.3,126.7
		s-86.8,77.1-146.9,95.4c-60.2,18.3-133.6,16.5-171.4-22.8c-37.7-39.2-39.7-115.8-58.1-184.3c-18.4-68.5-53.3-128.9-52.1-191.4
		c1.2-62.6,38.4-127.3,93.6-148.5c55.1-21.1,128.2,1.4,197.1,7.2C-89.4-245.2-24.8-256.1,28.9-234.5"/>
</g>
</svg>
